<?xml version="1.0" encoding="utf-8" standalone="no"?>
<!DOCTYPE svg PUBLIC "-//W3C//DTD SVG 1.1//EN"
  "http://www.w3.org/Graphics/SVG/1.1/DTD/svg11.dtd">
<svg xmlns:xlink="http://www.w3.org/1999/xlink" width="1152pt" height="792pt" viewBox="0 0 1152 792" xmlns="http://www.w3.org/2000/svg" version="1.1">
 <metadata>
  <rdf:RDF xmlns:dc="http://purl.org/dc/elements/1.1/" xmlns:cc="http://creativecommons.org/ns#" xmlns:rdf="http://www.w3.org/1999/02/22-rdf-syntax-ns#">
   <cc:Work>
    <dc:type rdf:resource="http://purl.org/dc/dcmitype/StillImage"/>
    <dc:date>2026-10-02T12:46:42.592599</dc:date>
    <dc:format>image/svg+xml</dc:format>
    <dc:creator>
     <cc:Agent>
      <dc:title>Matplotlib v3.10.1, https://matplotlib.org/</dc:title>
     </cc:Agent>
    </dc:creator>
   </cc:Work>
  </rdf:RDF>
 </metadata>
 <defs>
  <style type="text/css">*{stroke-linejoin: round; stroke-linecap: butt}</style>
 </defs>
 <g id="figure_1">
  <g id="patch_1">
   <path d="M 0 792 
L 1152 792 
L 1152 0 
L 0 0 
z
" style="fill: #ffffff"/>
  </g>
  <g id="axes_1">
   <g id="patch_2">
    <path d="M 218.88 586.08 
L 693.643636 586.08 
L 693.643636 150.48 
L 218.88 150.48 
z
" style="fill: #ffffff"/>
   </g>
   <g id="matplotlib.axis_1">
    <g id="xtick_1">
     <g id="line2d_1">
      <path d="M 218.88 586.08 
L 218.88 150.48 
" clip-path="url(#paf2e51bf0a)" style="fill: none; stroke: #e5eaee; stroke-width: 0.7; stroke-linecap: square"/>
     </g>
     <g id="line2d_2"/>
     <g id="text_1">
      <text style="font-size: 11px; font-family: 'DejaVu Sans'; text-anchor: middle; fill: #4b5b66" x="218.88" y="602.438281" transform="rotate(-0 218.88 602.438281)">0%</text>
     </g>
    </g>
    <g id="xtick_2">
     <g id="line2d_3">
      <path d="M 313.832727 586.08 
L 313.832727 150.48 
" clip-path="url(#paf2e51bf0a)" style="fill: none; stroke: #e5eaee; stroke-width: 0.7; stroke-linecap: square"/>
     </g>
     <g id="line2d_4"/>
     <g id="text_2">
      <text style="font-size: 11px; font-family: 'DejaVu Sans'; text-anchor: middle; fill: #4b5b66" x="313.832727" y="602.438281" transform="rotate(-0 313.832727 602.438281)">20%</text>
     </g>
    </g>
    <g id="xtick_3">
     <g id="line2d_5">
      <path d="M 408.785455 586.08 
L 408.785455 150.48 
" clip-path="url(#paf2e51bf0a)" style="fill: none; stroke: #e5eaee; stroke-width: 0.7; stroke-linecap: square"/>
     </g>
     <g id="line2d_6"/>
     <g id="text_3">
      <text style="font-size: 11px; font-family: 'DejaVu Sans'; text-anchor: middle; fill: #4b5b66" x="408.785455" y="602.438281" transform="rotate(-0 408.785455 602.438281)">40%</text>
     </g>
    </g>
    <g id="xtick_4">
     <g id="line2d_7">
      <path d="M 503.738182 586.08 
L 503.738182 150.48 
" clip-path="url(#paf2e51bf0a)" style="fill: none; stroke: #e5eaee; stroke-width: 0.7; stroke-linecap: square"/>
     </g>
     <g id="line2d_8"/>
     <g id="text_4">
      <text style="font-size: 11px; font-family: 'DejaVu Sans'; text-anchor: middle; fill: #4b5b66" x="503.738182" y="602.438281" transform="rotate(-0 503.738182 602.438281)">60%</text>
     </g>
    </g>
    <g id="xtick_5">
     <g id="line2d_9">
      <path d="M 598.690909 586.08 
L 598.690909 150.48 
" clip-path="url(#paf2e51bf0a)" style="fill: none; stroke: #e5eaee; stroke-width: 0.7; stroke-linecap: square"/>
     </g>
     <g id="line2d_10"/>
     <g id="text_5">
      <text style="font-size: 11px; font-family: 'DejaVu Sans'; text-anchor: middle; fill: #4b5b66" x="598.690909" y="602.438281" transform="rotate(-0 598.690909 602.438281)">80%</text>
     </g>
    </g>
    <g id="xtick_6">
     <g id="line2d_11">
      <path d="M 693.643636 586.08 
L 693.643636 150.48 
" clip-path="url(#paf2e51bf0a)" style="fill: none; stroke: #e5eaee; stroke-width: 0.7; stroke-linecap: square"/>
     </g>
     <g id="line2d_12"/>
     <g id="text_6">
      <text style="font-size: 11px; font-family: 'DejaVu Sans'; text-anchor: middle; fill: #4b5b66" x="693.643636" y="602.438281" transform="rotate(-0 693.643636 602.438281)">100%</text>
     </g>
    </g>
    <g id="text_7">
     <text style="font-size: 11px; font-family: 'DejaVu Sans'; text-anchor: middle" x="456.261818" y="625.084219" transform="rotate(-0 456.261818 625.084219)">Share of papers in each modality</text>
    </g>
   </g>
   <g id="matplotlib.axis_2">
    <g id="ytick_1">
     <g id="line2d_13"/>
     <g id="text_8">
      <text style="font-size: 11px; font-family: 'DejaVu Sans'; text-anchor: end; fill: #4b5b66" x="210.88" y="182.074525" transform="rotate(-0 210.88 182.074525)">Sensors</text>
     </g>
    </g>
    <g id="ytick_2">
     <g id="line2d_14"/>
     <g id="text_9">
      <text style="font-size: 11px; font-family: 'DejaVu Sans'; text-anchor: end; fill: #4b5b66" x="210.88" y="204.472715" transform="rotate(-0 210.88 204.472715)">Microscopy</text>
     </g>
    </g>
    <g id="ytick_3">
     <g id="line2d_15"/>
     <g id="text_10">
      <text style="font-size: 11px; font-family: 'DejaVu Sans'; text-anchor: end; fill: #4b5b66" x="210.88" y="226.870905" transform="rotate(-0 210.88 226.870905)">Multimodal</text>
     </g>
    </g>
    <g id="ytick_4">
     <g id="line2d_16"/>
     <g id="text_11">
      <text style="font-size: 11px; font-family: 'DejaVu Sans'; text-anchor: end; fill: #4b5b66" x="210.88" y="249.269095" transform="rotate(-0 210.88 249.269095)">MRI</text>
     </g>
    </g>
    <g id="ytick_5">
     <g id="line2d_17"/>
     <g id="text_12">
      <text style="font-size: 11px; font-family: 'DejaVu Sans'; text-anchor: end; fill: #4b5b66" x="210.88" y="271.667285" transform="rotate(-0 210.88 271.667285)">Physiological signals</text>
     </g>
    </g>
    <g id="ytick_6">
     <g id="line2d_18"/>
     <g id="text_13">
      <text style="font-size: 11px; font-family: 'DejaVu Sans'; text-anchor: end; fill: #4b5b66" x="210.88" y="294.065475" transform="rotate(-0 210.88 294.065475)">Histology</text>
     </g>
    </g>
    <g id="ytick_7">
     <g id="line2d_19"/>
     <g id="text_14">
      <text style="font-size: 11px; font-family: 'DejaVu Sans'; text-anchor: end; fill: #4b5b66" x="210.88" y="316.463666" transform="rotate(-0 210.88 316.463666)">Photo / video</text>
     </g>
    </g>
    <g id="ytick_8">
     <g id="line2d_20"/>
     <g id="text_15">
      <text style="font-size: 11px; font-family: 'DejaVu Sans'; text-anchor: end; fill: #4b5b66" x="210.88" y="338.861856" transform="rotate(-0 210.88 338.861856)">Endoscopy</text>
     </g>
    </g>
    <g id="ytick_9">
     <g id="line2d_21"/>
     <g id="text_16">
      <text style="font-size: 11px; font-family: 'DejaVu Sans'; text-anchor: end; fill: #4b5b66" x="210.88" y="361.260046" transform="rotate(-0 210.88 361.260046)">EHR</text>
     </g>
    </g>
    <g id="ytick_10">
     <g id="line2d_22"/>
     <g id="text_17">
      <text style="font-size: 11px; font-family: 'DejaVu Sans'; text-anchor: end; fill: #4b5b66" x="210.88" y="383.658236" transform="rotate(-0 210.88 383.658236)">Computational imaging</text>
     </g>
    </g>
    <g id="ytick_11">
     <g id="line2d_23"/>
     <g id="text_18">
      <text style="font-size: 11px; font-family: 'DejaVu Sans'; text-anchor: end; fill: #4b5b66" x="210.88" y="406.056426" transform="rotate(-0 210.88 406.056426)">CT-XRay</text>
     </g>
    </g>
    <g id="ytick_12">
     <g id="line2d_24"/>
     <g id="text_19">
      <text style="font-size: 11px; font-family: 'DejaVu Sans'; text-anchor: end; fill: #4b5b66" x="210.88" y="428.454616" transform="rotate(-0 210.88 428.454616)">Ultrasound</text>
     </g>
    </g>
    <g id="ytick_13">
     <g id="line2d_25"/>
     <g id="text_20">
      <text style="font-size: 11px; font-family: 'DejaVu Sans'; text-anchor: end; fill: #4b5b66" x="210.88" y="450.852806" transform="rotate(-0 210.88 450.852806)">Robotics</text>
     </g>
    </g>
    <g id="ytick_14">
     <g id="line2d_26"/>
     <g id="text_21">
      <text style="font-size: 11px; font-family: 'DejaVu Sans'; text-anchor: end; fill: #4b5b66" x="210.88" y="473.250996" transform="rotate(-0 210.88 473.250996)">Others</text>
     </g>
    </g>
    <g id="ytick_15">
     <g id="line2d_27"/>
     <g id="text_22">
      <text style="font-size: 11px; font-family: 'DejaVu Sans'; text-anchor: end; fill: #4b5b66" x="210.88" y="495.649186" transform="rotate(-0 210.88 495.649186)">PET / SPECT</text>
     </g>
    </g>
    <g id="ytick_16">
     <g id="line2d_28"/>
     <g id="text_23">
      <text style="font-size: 11px; font-family: 'DejaVu Sans'; text-anchor: end; fill: #4b5b66" x="210.88" y="518.047376" transform="rotate(-0 210.88 518.047376)">Diffusion MRI</text>
     </g>
    </g>
    <g id="ytick_17">
     <g id="line2d_29"/>
     <g id="text_24">
      <text style="font-size: 11px; font-family: 'DejaVu Sans'; text-anchor: end; fill: #4b5b66" x="210.88" y="540.445566" transform="rotate(-0 210.88 540.445566)">Functional MRI</text>
     </g>
    </g>
    <g id="ytick_18">
     <g id="line2d_30"/>
     <g id="text_25">
      <text style="font-size: 11px; font-family: 'DejaVu Sans'; text-anchor: end; fill: #4b5b66" x="210.88" y="562.843756" transform="rotate(-0 210.88 562.843756)">Spectroscopy</text>
     </g>
    </g>
   </g>
   <g id="patch_3">
    <path d="M 218.88 170.28 
L 643.668517 170.28 
L 643.668517 185.510769 
L 218.88 185.510769 
z
" clip-path="url(#paf2e51bf0a)" style="fill: #167d9a"/>
   </g>
   <g id="patch_4">
    <path d="M 218.88 192.67819 
L 600.247511 192.67819 
L 600.247511 207.908959 
L 218.88 207.908959 
z
" clip-path="url(#paf2e51bf0a)" style="fill: #167d9a"/>
   </g>
   <g id="patch_5">
    <path d="M 218.88 215.07638 
L 594.734545 215.07638 
L 594.734545 230.307149 
L 218.88 230.307149 
z
" clip-path="url(#paf2e51bf0a)" style="fill: #167d9a"/>
   </g>
   <g id="patch_6">
    <path d="M 218.88 237.47457 
L 575.73876 237.47457 
L 575.73876 252.705339 
L 218.88 252.705339 
z
" clip-path="url(#paf2e51bf0a)" style="fill: #167d9a"/>
   </g>
   <g id="patch_7">
    <path d="M 218.88 259.87276 
L 574.952727 259.87276 
L 574.952727 275.103529 
L 218.88 275.103529 
z
" clip-path="url(#paf2e51bf0a)" style="fill: #167d9a"/>
   </g>
   <g id="patch_8">
    <path d="M 218.88 282.27095 
L 568.705837 282.27095 
L 568.705837 297.501719 
L 218.88 297.501719 
z
" clip-path="url(#paf2e51bf0a)" style="fill: #167d9a"/>
   </g>
   <g id="patch_9">
    <path d="M 218.88 304.66914 
L 566.474805 304.66914 
L 566.474805 319.89991 
L 218.88 319.89991 
z
" clip-path="url(#paf2e51bf0a)" style="fill: #167d9a"/>
   </g>
   <g id="patch_10">
    <path d="M 218.88 327.06733 
L 561.764848 327.06733 
L 561.764848 342.2981 
L 218.88 342.2981 
z
" clip-path="url(#paf2e51bf0a)" style="fill: #167d9a"/>
   </g>
   <g id="patch_11">
    <path d="M 218.88 349.46552 
L 557.996883 349.46552 
L 557.996883 364.69629 
L 218.88 364.69629 
z
" clip-path="url(#paf2e51bf0a)" style="fill: #167d9a"/>
   </g>
   <g id="patch_12">
    <path d="M 218.88 371.86371 
L 555.809032 371.86371 
L 555.809032 387.09448 
L 218.88 387.09448 
z
" clip-path="url(#paf2e51bf0a)" style="fill: #167d9a"/>
   </g>
   <g id="patch_13">
    <path d="M 218.88 394.2619 
L 555.276694 394.2619 
L 555.276694 409.49267 
L 218.88 409.49267 
z
" clip-path="url(#paf2e51bf0a)" style="fill: #167d9a"/>
   </g>
   <g id="patch_14">
    <path d="M 218.88 416.66009 
L 552.972929 416.66009 
L 552.972929 431.89086 
L 218.88 431.89086 
z
" clip-path="url(#paf2e51bf0a)" style="fill: #167d9a"/>
   </g>
   <g id="patch_15">
    <path d="M 218.88 439.058281 
L 549.150356 439.058281 
L 549.150356 454.28905 
L 218.88 454.28905 
z
" clip-path="url(#paf2e51bf0a)" style="fill: #167d9a"/>
   </g>
   <g id="patch_16">
    <path d="M 218.88 461.456471 
L 545.599062 461.456471 
L 545.599062 476.68724 
L 218.88 476.68724 
z
" clip-path="url(#paf2e51bf0a)" style="fill: #167d9a"/>
   </g>
   <g id="patch_17">
    <path d="M 218.88 483.854661 
L 540.494076 483.854661 
L 540.494076 499.08543 
L 218.88 499.08543 
z
" clip-path="url(#paf2e51bf0a)" style="fill: #167d9a"/>
   </g>
   <g id="patch_18">
    <path d="M 218.88 506.252851 
L 522.728727 506.252851 
L 522.728727 521.48362 
L 218.88 521.48362 
z
" clip-path="url(#paf2e51bf0a)" style="fill: #167d9a"/>
   </g>
   <g id="patch_19">
    <path d="M 218.88 528.651041 
L 505.716364 528.651041 
L 505.716364 543.88181 
L 218.88 543.88181 
z
" clip-path="url(#paf2e51bf0a)" style="fill: #167d9a"/>
   </g>
   <g id="patch_20">
    <path d="M 218.88 551.049231 
L 456.261818 551.049231 
L 456.261818 566.28 
L 218.88 566.28 
z
" clip-path="url(#paf2e51bf0a)" style="fill: #167d9a"/>
   </g>
   <g id="patch_21">
    <path d="M 643.668517 170.28 
L 643.668517 170.28 
L 643.668517 185.510769 
L 643.668517 185.510769 
z
" clip-path="url(#paf2e51bf0a)" style="fill: #c96153"/>
   </g>
   <g id="patch_22">
    <path d="M 600.247511 192.67819 
L 623.596542 192.67819 
L 623.596542 207.908959 
L 600.247511 207.908959 
z
" clip-path="url(#paf2e51bf0a)" style="fill: #c96153"/>
   </g>
   <g id="patch_23">
    <path d="M 594.734545 215.07638 
L 594.734545 215.07638 
L 594.734545 230.307149 
L 594.734545 230.307149 
z
" clip-path="url(#paf2e51bf0a)" style="fill: #c96153"/>
   </g>
   <g id="patch_24">
    <path d="M 575.73876 237.47457 
L 600.8918 237.47457 
L 600.8918 252.705339 
L 575.73876 252.705339 
z
" clip-path="url(#paf2e51bf0a)" style="fill: #c96153"/>
   </g>
   <g id="patch_25">
    <path d="M 574.952727 259.87276 
L 584.082797 259.87276 
L 584.082797 275.103529 
L 574.952727 275.103529 
z
" clip-path="url(#paf2e51bf0a)" style="fill: #c96153"/>
   </g>
   <g id="patch_26">
    <path d="M 568.705837 282.27095 
L 585.364211 282.27095 
L 585.364211 297.501719 
L 568.705837 297.501719 
z
" clip-path="url(#paf2e51bf0a)" style="fill: #c96153"/>
   </g>
   <g id="patch_27">
    <path d="M 566.474805 304.66914 
L 583.430649 304.66914 
L 583.430649 319.89991 
L 566.474805 319.89991 
z
" clip-path="url(#paf2e51bf0a)" style="fill: #c96153"/>
   </g>
   <g id="patch_28">
    <path d="M 561.764848 327.06733 
L 577.590303 327.06733 
L 577.590303 342.2981 
L 561.764848 342.2981 
z
" clip-path="url(#paf2e51bf0a)" style="fill: #c96153"/>
   </g>
   <g id="patch_29">
    <path d="M 557.996883 349.46552 
L 574.952727 349.46552 
L 574.952727 364.69629 
L 557.996883 364.69629 
z
" clip-path="url(#paf2e51bf0a)" style="fill: #c96153"/>
   </g>
   <g id="patch_30">
    <path d="M 555.809032 371.86371 
L 555.809032 371.86371 
L 555.809032 387.09448 
L 555.809032 387.09448 
z
" clip-path="url(#paf2e51bf0a)" style="fill: #c96153"/>
   </g>
   <g id="patch_31">
    <path d="M 555.276694 394.2619 
L 569.240331 394.2619 
L 569.240331 409.49267 
L 555.276694 409.49267 
z
" clip-path="url(#paf2e51bf0a)" style="fill: #c96153"/>
   </g>
   <g id="patch_32">
    <path d="M 552.972929 416.66009 
L 567.04 416.66009 
L 567.04 431.89086 
L 552.972929 431.89086 
z
" clip-path="url(#paf2e51bf0a)" style="fill: #c96153"/>
   </g>
   <g id="patch_33">
    <path d="M 549.150356 439.058281 
L 549.150356 439.058281 
L 549.150356 454.28905 
L 549.150356 454.28905 
z
" clip-path="url(#paf2e51bf0a)" style="fill: #c96153"/>
   </g>
   <g id="patch_34">
    <path d="M 545.599062 461.456471 
L 555.809032 461.456471 
L 555.809032 476.68724 
L 545.599062 476.68724 
z
" clip-path="url(#paf2e51bf0a)" style="fill: #c96153"/>
   </g>
   <g id="patch_35">
    <path d="M 540.494076 483.854661 
L 555.809032 483.854661 
L 555.809032 499.08543 
L 540.494076 499.08543 
z
" clip-path="url(#paf2e51bf0a)" style="fill: #c96153"/>
   </g>
   <g id="patch_36">
    <path d="M 522.728727 506.252851 
L 541.719273 506.252851 
L 541.719273 521.48362 
L 522.728727 521.48362 
z
" clip-path="url(#paf2e51bf0a)" style="fill: #c96153"/>
   </g>
   <g id="patch_37">
    <path d="M 505.716364 528.651041 
L 555.170909 528.651041 
L 555.170909 543.88181 
L 505.716364 543.88181 
z
" clip-path="url(#paf2e51bf0a)" style="fill: #c96153"/>
   </g>
   <g id="patch_38">
    <path d="M 456.261818 551.049231 
L 456.261818 551.049231 
L 456.261818 566.28 
L 456.261818 566.28 
z
" clip-path="url(#paf2e51bf0a)" style="fill: #c96153"/>
   </g>
   <g id="patch_39">
    <path d="M 643.668517 170.28 
L 643.668517 170.28 
L 643.668517 185.510769 
L 643.668517 185.510769 
z
" clip-path="url(#paf2e51bf0a)" style="fill: #8767a5"/>
   </g>
   <g id="patch_40">
    <path d="M 623.596542 192.67819 
L 623.596542 192.67819 
L 623.596542 207.908959 
L 623.596542 207.908959 
z
" clip-path="url(#paf2e51bf0a)" style="fill: #8767a5"/>
   </g>
   <g id="patch_41">
    <path d="M 594.734545 215.07638 
L 594.734545 215.07638 
L 594.734545 230.307149 
L 594.734545 230.307149 
z
" clip-path="url(#paf2e51bf0a)" style="fill: #8767a5"/>
   </g>
   <g id="patch_42">
    <path d="M 600.8918 237.47457 
L 602.463865 237.47457 
L 602.463865 252.705339 
L 600.8918 252.705339 
z
" clip-path="url(#paf2e51bf0a)" style="fill: #8767a5"/>
   </g>
   <g id="patch_43">
    <path d="M 584.082797 259.87276 
L 584.082797 259.87276 
L 584.082797 275.103529 
L 584.082797 275.103529 
z
" clip-path="url(#paf2e51bf0a)" style="fill: #8767a5"/>
   </g>
   <g id="patch_44">
    <path d="M 585.364211 282.27095 
L 585.364211 282.27095 
L 585.364211 297.501719 
L 585.364211 297.501719 
z
" clip-path="url(#paf2e51bf0a)" style="fill: #8767a5"/>
   </g>
   <g id="patch_45">
    <path d="M 583.430649 304.66914 
L 583.430649 304.66914 
L 583.430649 319.89991 
L 583.430649 319.89991 
z
" clip-path="url(#paf2e51bf0a)" style="fill: #8767a5"/>
   </g>
   <g id="patch_46">
    <path d="M 577.590303 327.06733 
L 577.590303 327.06733 
L 577.590303 342.2981 
L 577.590303 342.2981 
z
" clip-path="url(#paf2e51bf0a)" style="fill: #8767a5"/>
   </g>
   <g id="patch_47">
    <path d="M 574.952727 349.46552 
L 574.952727 349.46552 
L 574.952727 364.69629 
L 574.952727 364.69629 
z
" clip-path="url(#paf2e51bf0a)" style="fill: #8767a5"/>
   </g>
   <g id="patch_48">
    <path d="M 555.809032 371.86371 
L 555.809032 371.86371 
L 555.809032 387.09448 
L 555.809032 387.09448 
z
" clip-path="url(#paf2e51bf0a)" style="fill: #8767a5"/>
   </g>
   <g id="patch_49">
    <path d="M 569.240331 394.2619 
L 571.779174 394.2619 
L 571.779174 409.49267 
L 569.240331 409.49267 
z
" clip-path="url(#paf2e51bf0a)" style="fill: #8767a5"/>
   </g>
   <g id="patch_50">
    <path d="M 567.04 416.66009 
L 567.04 416.66009 
L 567.04 431.89086 
L 567.04 431.89086 
z
" clip-path="url(#paf2e51bf0a)" style="fill: #8767a5"/>
   </g>
   <g id="patch_51">
    <path d="M 549.150356 439.058281 
L 549.150356 439.058281 
L 549.150356 454.28905 
L 549.150356 454.28905 
z
" clip-path="url(#paf2e51bf0a)" style="fill: #8767a5"/>
   </g>
   <g id="patch_52">
    <path d="M 555.809032 461.456471 
L 555.809032 461.456471 
L 555.809032 476.68724 
L 555.809032 476.68724 
z
" clip-path="url(#paf2e51bf0a)" style="fill: #8767a5"/>
   </g>
   <g id="patch_53">
    <path d="M 555.809032 483.854661 
L 571.123988 483.854661 
L 571.123988 499.08543 
L 555.809032 499.08543 
z
" clip-path="url(#paf2e51bf0a)" style="fill: #8767a5"/>
   </g>
   <g id="patch_54">
    <path d="M 541.719273 506.252851 
L 541.719273 506.252851 
L 541.719273 521.48362 
L 541.719273 521.48362 
z
" clip-path="url(#paf2e51bf0a)" style="fill: #8767a5"/>
   </g>
   <g id="patch_55">
    <path d="M 555.170909 528.651041 
L 555.170909 528.651041 
L 555.170909 543.88181 
L 555.170909 543.88181 
z
" clip-path="url(#paf2e51bf0a)" style="fill: #8767a5"/>
   </g>
   <g id="patch_56">
    <path d="M 456.261818 551.049231 
L 456.261818 551.049231 
L 456.261818 566.28 
L 456.261818 566.28 
z
" clip-path="url(#paf2e51bf0a)" style="fill: #8767a5"/>
   </g>
   <g id="patch_57">
    <path d="M 643.668517 170.28 
L 643.668517 170.28 
L 643.668517 185.510769 
L 643.668517 185.510769 
z
" clip-path="url(#paf2e51bf0a)" style="fill: #d8a642"/>
   </g>
   <g id="patch_58">
    <path d="M 623.596542 192.67819 
L 623.596542 192.67819 
L 623.596542 207.908959 
L 623.596542 207.908959 
z
" clip-path="url(#paf2e51bf0a)" style="fill: #d8a642"/>
   </g>
   <g id="patch_59">
    <path d="M 594.734545 215.07638 
L 594.734545 215.07638 
L 594.734545 230.307149 
L 594.734545 230.307149 
z
" clip-path="url(#paf2e51bf0a)" style="fill: #d8a642"/>
   </g>
   <g id="patch_60">
    <path d="M 602.463865 237.47457 
L 608.752125 237.47457 
L 608.752125 252.705339 
L 602.463865 252.705339 
z
" clip-path="url(#paf2e51bf0a)" style="fill: #d8a642"/>
   </g>
   <g id="patch_61">
    <path d="M 584.082797 259.87276 
L 584.082797 259.87276 
L 584.082797 275.103529 
L 584.082797 275.103529 
z
" clip-path="url(#paf2e51bf0a)" style="fill: #d8a642"/>
   </g>
   <g id="patch_62">
    <path d="M 585.364211 282.27095 
L 593.693397 282.27095 
L 593.693397 297.501719 
L 585.364211 297.501719 
z
" clip-path="url(#paf2e51bf0a)" style="fill: #d8a642"/>
   </g>
   <g id="patch_63">
    <path d="M 583.430649 304.66914 
L 587.66961 304.66914 
L 587.66961 319.89991 
L 583.430649 319.89991 
z
" clip-path="url(#paf2e51bf0a)" style="fill: #d8a642"/>
   </g>
   <g id="patch_64">
    <path d="M 577.590303 327.06733 
L 582.865455 327.06733 
L 582.865455 342.2981 
L 577.590303 342.2981 
z
" clip-path="url(#paf2e51bf0a)" style="fill: #d8a642"/>
   </g>
   <g id="patch_65">
    <path d="M 574.952727 349.46552 
L 591.908571 349.46552 
L 591.908571 364.69629 
L 574.952727 364.69629 
z
" clip-path="url(#paf2e51bf0a)" style="fill: #d8a642"/>
   </g>
   <g id="patch_66">
    <path d="M 555.809032 371.86371 
L 586.438944 371.86371 
L 586.438944 387.09448 
L 555.809032 387.09448 
z
" clip-path="url(#paf2e51bf0a)" style="fill: #d8a642"/>
   </g>
   <g id="patch_67">
    <path d="M 571.779174 394.2619 
L 584.473388 394.2619 
L 584.473388 409.49267 
L 571.779174 409.49267 
z
" clip-path="url(#paf2e51bf0a)" style="fill: #d8a642"/>
   </g>
   <g id="patch_68">
    <path d="M 567.04 416.66009 
L 574.073535 416.66009 
L 574.073535 431.89086 
L 567.04 431.89086 
z
" clip-path="url(#paf2e51bf0a)" style="fill: #d8a642"/>
   </g>
   <g id="patch_69">
    <path d="M 549.150356 439.058281 
L 569.792253 439.058281 
L 569.792253 454.28905 
L 549.150356 454.28905 
z
" clip-path="url(#paf2e51bf0a)" style="fill: #d8a642"/>
   </g>
   <g id="patch_70">
    <path d="M 555.809032 461.456471 
L 560.914018 461.456471 
L 560.914018 476.68724 
L 555.809032 476.68724 
z
" clip-path="url(#paf2e51bf0a)" style="fill: #d8a642"/>
   </g>
   <g id="patch_71">
    <path d="M 571.123988 483.854661 
L 571.123988 483.854661 
L 571.123988 499.08543 
L 571.123988 499.08543 
z
" clip-path="url(#paf2e51bf0a)" style="fill: #d8a642"/>
   </g>
   <g id="patch_72">
    <path d="M 541.719273 506.252851 
L 541.719273 506.252851 
L 541.719273 521.48362 
L 541.719273 521.48362 
z
" clip-path="url(#paf2e51bf0a)" style="fill: #d8a642"/>
   </g>
   <g id="patch_73">
    <path d="M 555.170909 528.651041 
L 555.170909 528.651041 
L 555.170909 543.88181 
L 555.170909 543.88181 
z
" clip-path="url(#paf2e51bf0a)" style="fill: #d8a642"/>
   </g>
   <g id="patch_74">
    <path d="M 456.261818 551.049231 
L 456.261818 551.049231 
L 456.261818 566.28 
L 456.261818 566.28 
z
" clip-path="url(#paf2e51bf0a)" style="fill: #d8a642"/>
   </g>
   <g id="patch_75">
    <path d="M 643.668517 170.28 
L 693.643636 170.28 
L 693.643636 185.510769 
L 643.668517 185.510769 
z
" clip-path="url(#paf2e51bf0a)" style="fill: #cfd7dd"/>
   </g>
   <g id="patch_76">
    <path d="M 623.596542 192.67819 
L 693.643636 192.67819 
L 693.643636 207.908959 
L 623.596542 207.908959 
z
" clip-path="url(#paf2e51bf0a)" style="fill: #cfd7dd"/>
   </g>
   <g id="patch_77">
    <path d="M 594.734545 215.07638 
L 693.643636 215.07638 
L 693.643636 230.307149 
L 594.734545 230.307149 
z
" clip-path="url(#paf2e51bf0a)" style="fill: #cfd7dd"/>
   </g>
   <g id="patch_78">
    <path d="M 608.752125 237.47457 
L 693.643636 237.47457 
L 693.643636 252.705339 
L 608.752125 252.705339 
z
" clip-path="url(#paf2e51bf0a)" style="fill: #cfd7dd"/>
   </g>
   <g id="patch_79">
    <path d="M 584.082797 259.87276 
L 693.643636 259.87276 
L 693.643636 275.103529 
L 584.082797 275.103529 
z
" clip-path="url(#paf2e51bf0a)" style="fill: #cfd7dd"/>
   </g>
   <g id="patch_80">
    <path d="M 593.693397 282.27095 
L 693.643636 282.27095 
L 693.643636 297.501719 
L 593.693397 297.501719 
z
" clip-path="url(#paf2e51bf0a)" style="fill: #cfd7dd"/>
   </g>
   <g id="patch_81">
    <path d="M 587.66961 304.66914 
L 693.643636 304.66914 
L 693.643636 319.89991 
L 587.66961 319.89991 
z
" clip-path="url(#paf2e51bf0a)" style="fill: #cfd7dd"/>
   </g>
   <g id="patch_82">
    <path d="M 582.865455 327.06733 
L 693.643636 327.06733 
L 693.643636 342.2981 
L 582.865455 342.2981 
z
" clip-path="url(#paf2e51bf0a)" style="fill: #cfd7dd"/>
   </g>
   <g id="patch_83">
    <path d="M 591.908571 349.46552 
L 693.643636 349.46552 
L 693.643636 364.69629 
L 591.908571 364.69629 
z
" clip-path="url(#paf2e51bf0a)" style="fill: #cfd7dd"/>
   </g>
   <g id="patch_84">
    <path d="M 586.438944 371.86371 
L 693.643636 371.86371 
L 693.643636 387.09448 
L 586.438944 387.09448 
z
" clip-path="url(#paf2e51bf0a)" style="fill: #cfd7dd"/>
   </g>
   <g id="patch_85">
    <path d="M 584.473388 394.2619 
L 693.643636 394.2619 
L 693.643636 409.49267 
L 584.473388 409.49267 
z
" clip-path="url(#paf2e51bf0a)" style="fill: #cfd7dd"/>
   </g>
   <g id="patch_86">
    <path d="M 574.073535 416.66009 
L 693.643636 416.66009 
L 693.643636 431.89086 
L 574.073535 431.89086 
z
" clip-path="url(#paf2e51bf0a)" style="fill: #cfd7dd"/>
   </g>
   <g id="patch_87">
    <path d="M 569.792253 439.058281 
L 693.643636 439.058281 
L 693.643636 454.28905 
L 569.792253 454.28905 
z
" clip-path="url(#paf2e51bf0a)" style="fill: #cfd7dd"/>
   </g>
   <g id="patch_88">
    <path d="M 560.914018 461.456471 
L 693.643636 461.456471 
L 693.643636 476.68724 
L 560.914018 476.68724 
z
" clip-path="url(#paf2e51bf0a)" style="fill: #cfd7dd"/>
   </g>
   <g id="patch_89">
    <path d="M 571.123988 483.854661 
L 693.643636 483.854661 
L 693.643636 499.08543 
L 571.123988 499.08543 
z
" clip-path="url(#paf2e51bf0a)" style="fill: #cfd7dd"/>
   </g>
   <g id="patch_90">
    <path d="M 541.719273 506.252851 
L 693.643636 506.252851 
L 693.643636 521.48362 
L 541.719273 521.48362 
z
" clip-path="url(#paf2e51bf0a)" style="fill: #cfd7dd"/>
   </g>
   <g id="patch_91">
    <path d="M 555.170909 528.651041 
L 693.643636 528.651041 
L 693.643636 543.88181 
L 555.170909 543.88181 
z
" clip-path="url(#paf2e51bf0a)" style="fill: #cfd7dd"/>
   </g>
   <g id="patch_92">
    <path d="M 456.261818 551.049231 
L 693.643636 551.049231 
L 693.643636 566.28 
L 456.261818 566.28 
z
" clip-path="url(#paf2e51bf0a)" style="fill: #cfd7dd"/>
   </g>
   <g id="text_26">
    <text style="font-weight: 700; font-size: 10px; font-family: 'DejaVu Sans'; text-anchor: middle; fill: #ffffff" x="431.274258" y="180.65476" transform="rotate(-0 431.274258 180.65476)">89.5%</text>
   </g>
   <g id="text_27">
    <text style="font-weight: 700; font-size: 10px; font-family: 'DejaVu Sans'; text-anchor: middle; fill: #ffffff" x="409.563756" y="203.05295" transform="rotate(-0 409.563756 203.05295)">80.3%</text>
   </g>
   <g id="text_28">
    <text style="font-weight: 700; font-size: 10px; font-family: 'DejaVu Sans'; text-anchor: middle; fill: #ffffff" x="406.807273" y="225.45114" transform="rotate(-0 406.807273 225.45114)">79.2%</text>
   </g>
   <g id="text_29">
    <text style="font-weight: 700; font-size: 10px; font-family: 'DejaVu Sans'; text-anchor: middle; fill: #ffffff" x="397.30938" y="247.84933" transform="rotate(-0 397.30938 247.84933)">75.2%</text>
   </g>
   <g id="text_30">
    <text style="font-weight: 700; font-size: 10px; font-family: 'DejaVu Sans'; text-anchor: middle; fill: #ffffff" x="396.916364" y="270.24752" transform="rotate(-0 396.916364 270.24752)">75.0%</text>
   </g>
   <g id="text_31">
    <text style="font-weight: 700; font-size: 10px; font-family: 'DejaVu Sans'; text-anchor: middle; fill: #ffffff" x="393.792919" y="292.64571" transform="rotate(-0 393.792919 292.64571)">73.7%</text>
   </g>
   <g id="text_32">
    <text style="font-weight: 700; font-size: 10px; font-family: 'DejaVu Sans'; text-anchor: middle; fill: #ffffff" x="392.677403" y="315.0439" transform="rotate(-0 392.677403 315.0439)">73.2%</text>
   </g>
   <g id="text_33">
    <text style="font-weight: 700; font-size: 10px; font-family: 'DejaVu Sans'; text-anchor: middle; fill: #ffffff" x="390.322424" y="337.44209" transform="rotate(-0 390.322424 337.44209)">72.2%</text>
   </g>
   <g id="text_34">
    <text style="font-weight: 700; font-size: 10px; font-family: 'DejaVu Sans'; text-anchor: middle; fill: #ffffff" x="388.438442" y="359.84028" transform="rotate(-0 388.438442 359.84028)">71.4%</text>
   </g>
   <g id="text_35">
    <text style="font-weight: 700; font-size: 10px; font-family: 'DejaVu Sans'; text-anchor: middle; fill: #ffffff" x="387.344516" y="382.23847" transform="rotate(-0 387.344516 382.23847)">71.0%</text>
   </g>
   <g id="text_36">
    <text style="font-weight: 700; font-size: 10px; font-family: 'DejaVu Sans'; text-anchor: middle; fill: #ffffff" x="387.078347" y="404.63666" transform="rotate(-0 387.078347 404.63666)">70.9%</text>
   </g>
   <g id="text_37">
    <text style="font-weight: 700; font-size: 10px; font-family: 'DejaVu Sans'; text-anchor: middle; fill: #ffffff" x="385.926465" y="427.03485" transform="rotate(-0 385.926465 427.03485)">70.4%</text>
   </g>
   <g id="text_38">
    <text style="font-weight: 700; font-size: 10px; font-family: 'DejaVu Sans'; text-anchor: middle; fill: #ffffff" x="384.015178" y="449.43304" transform="rotate(-0 384.015178 449.43304)">69.6%</text>
   </g>
   <g id="text_39">
    <text style="font-weight: 700; font-size: 10px; font-family: 'DejaVu Sans'; text-anchor: middle; fill: #ffffff" x="382.239531" y="471.83123" transform="rotate(-0 382.239531 471.83123)">68.8%</text>
   </g>
   <g id="text_40">
    <text style="font-weight: 700; font-size: 10px; font-family: 'DejaVu Sans'; text-anchor: middle; fill: #ffffff" x="379.687038" y="494.22942" transform="rotate(-0 379.687038 494.22942)">67.7%</text>
   </g>
   <g id="text_41">
    <text style="font-weight: 700; font-size: 10px; font-family: 'DejaVu Sans'; text-anchor: middle; fill: #ffffff" x="370.804364" y="516.62761" transform="rotate(-0 370.804364 516.62761)">64.0%</text>
   </g>
   <g id="text_42">
    <text style="font-weight: 700; font-size: 10px; font-family: 'DejaVu Sans'; text-anchor: middle; fill: #ffffff" x="362.298182" y="539.0258" transform="rotate(-0 362.298182 539.0258)">60.4%</text>
   </g>
   <g id="text_43">
    <text style="font-weight: 700; font-size: 10px; font-family: 'DejaVu Sans'; text-anchor: middle; fill: #ffffff" x="337.570909" y="561.42399" transform="rotate(-0 337.570909 561.42399)">50.0%</text>
   </g>
   <g id="text_44">
    <text style="font-size: 12px; font-family: 'DejaVu Sans'; text-anchor: start" x="218.88" y="134.48" transform="rotate(-0 218.88 134.48)">Coverage · sorted by accessible share</text>
   </g>
  </g>
  <g id="axes_2">
   <g id="patch_93">
    <path d="M 769.047273 586.08 
L 1048.32 586.08 
L 1048.32 150.48 
L 769.047273 150.48 
z
" style="fill: #ffffff"/>
   </g>
   <g id="matplotlib.axis_3">
    <g id="xtick_7">
     <g id="line2d_31">
      <path d="M 769.047273 586.08 
L 769.047273 150.48 
" clip-path="url(#p874a1380a9)" style="fill: none; stroke: #e5eaee; stroke-width: 0.7; stroke-linecap: square"/>
     </g>
     <g id="line2d_32"/>
     <g id="text_45">
      <text style="font-size: 11px; font-family: 'DejaVu Sans'; text-anchor: middle; fill: #4b5b66" x="769.047273" y="602.438281" transform="rotate(-0 769.047273 602.438281)">0</text>
     </g>
    </g>
    <g id="xtick_8">
     <g id="line2d_33">
      <path d="M 808.0791 586.08 
L 808.0791 150.48 
" clip-path="url(#p874a1380a9)" style="fill: none; stroke: #e5eaee; stroke-width: 0.7; stroke-linecap: square"/>
     </g>
     <g id="line2d_34"/>
     <g id="text_46">
      <text style="font-size: 11px; font-family: 'DejaVu Sans'; text-anchor: middle; fill: #4b5b66" x="808.0791" y="602.438281" transform="rotate(-0 808.0791 602.438281)">50</text>
     </g>
    </g>
    <g id="xtick_9">
     <g id="line2d_35">
      <path d="M 847.110928 586.08 
L 847.110928 150.48 
" clip-path="url(#p874a1380a9)" style="fill: none; stroke: #e5eaee; stroke-width: 0.7; stroke-linecap: square"/>
     </g>
     <g id="line2d_36"/>
     <g id="text_47">
      <text style="font-size: 11px; font-family: 'DejaVu Sans'; text-anchor: middle; fill: #4b5b66" x="847.110928" y="602.438281" transform="rotate(-0 847.110928 602.438281)">100</text>
     </g>
    </g>
    <g id="xtick_10">
     <g id="line2d_37">
      <path d="M 886.142756 586.08 
L 886.142756 150.48 
" clip-path="url(#p874a1380a9)" style="fill: none; stroke: #e5eaee; stroke-width: 0.7; stroke-linecap: square"/>
     </g>
     <g id="line2d_38"/>
     <g id="text_48">
      <text style="font-size: 11px; font-family: 'DejaVu Sans'; text-anchor: middle; fill: #4b5b66" x="886.142756" y="602.438281" transform="rotate(-0 886.142756 602.438281)">150</text>
     </g>
    </g>
    <g id="xtick_11">
     <g id="line2d_39">
      <path d="M 925.174584 586.08 
L 925.174584 150.48 
" clip-path="url(#p874a1380a9)" style="fill: none; stroke: #e5eaee; stroke-width: 0.7; stroke-linecap: square"/>
     </g>
     <g id="line2d_40"/>
     <g id="text_49">
      <text style="font-size: 11px; font-family: 'DejaVu Sans'; text-anchor: middle; fill: #4b5b66" x="925.174584" y="602.438281" transform="rotate(-0 925.174584 602.438281)">200</text>
     </g>
    </g>
    <g id="xtick_12">
     <g id="line2d_41">
      <path d="M 964.206411 586.08 
L 964.206411 150.48 
" clip-path="url(#p874a1380a9)" style="fill: none; stroke: #e5eaee; stroke-width: 0.7; stroke-linecap: square"/>
     </g>
     <g id="line2d_42"/>
     <g id="text_50">
      <text style="font-size: 11px; font-family: 'DejaVu Sans'; text-anchor: middle; fill: #4b5b66" x="964.206411" y="602.438281" transform="rotate(-0 964.206411 602.438281)">250</text>
     </g>
    </g>
    <g id="xtick_13">
     <g id="line2d_43">
      <path d="M 1003.238239 586.08 
L 1003.238239 150.48 
" clip-path="url(#p874a1380a9)" style="fill: none; stroke: #e5eaee; stroke-width: 0.7; stroke-linecap: square"/>
     </g>
     <g id="line2d_44"/>
     <g id="text_51">
      <text style="font-size: 11px; font-family: 'DejaVu Sans'; text-anchor: middle; fill: #4b5b66" x="1003.238239" y="602.438281" transform="rotate(-0 1003.238239 602.438281)">300</text>
     </g>
    </g>
    <g id="xtick_14">
     <g id="line2d_45">
      <path d="M 1042.270067 586.08 
L 1042.270067 150.48 
" clip-path="url(#p874a1380a9)" style="fill: none; stroke: #e5eaee; stroke-width: 0.7; stroke-linecap: square"/>
     </g>
     <g id="line2d_46"/>
     <g id="text_52">
      <text style="font-size: 11px; font-family: 'DejaVu Sans'; text-anchor: middle; fill: #4b5b66" x="1042.270067" y="602.438281" transform="rotate(-0 1042.270067 602.438281)">350</text>
     </g>
    </g>
    <g id="text_53">
     <text style="font-size: 11px; font-family: 'DejaVu Sans'; text-anchor: middle" x="908.683636" y="625.084219" transform="rotate(-0 908.683636 625.084219)">Papers with accessible repository pages</text>
    </g>
   </g>
   <g id="matplotlib.axis_4">
    <g id="ytick_19">
     <g id="line2d_47"/>
    </g>
    <g id="ytick_20">
     <g id="line2d_48"/>
    </g>
    <g id="ytick_21">
     <g id="line2d_49"/>
    </g>
    <g id="ytick_22">
     <g id="line2d_50"/>
    </g>
    <g id="ytick_23">
     <g id="line2d_51"/>
    </g>
    <g id="ytick_24">
     <g id="line2d_52"/>
    </g>
    <g id="ytick_25">
     <g id="line2d_53"/>
    </g>
    <g id="ytick_26">
     <g id="line2d_54"/>
    </g>
    <g id="ytick_27">
     <g id="line2d_55"/>
    </g>
    <g id="ytick_28">
     <g id="line2d_56"/>
    </g>
    <g id="ytick_29">
     <g id="line2d_57"/>
    </g>
    <g id="ytick_30">
     <g id="line2d_58"/>
    </g>
    <g id="ytick_31">
     <g id="line2d_59"/>
    </g>
    <g id="ytick_32">
     <g id="line2d_60"/>
    </g>
    <g id="ytick_33">
     <g id="line2d_61"/>
    </g>
    <g id="ytick_34">
     <g id="line2d_62"/>
    </g>
    <g id="ytick_35">
     <g id="line2d_63"/>
    </g>
    <g id="ytick_36">
     <g id="line2d_64"/>
    </g>
   </g>
   <g id="patch_94">
    <path d="M 769.047273 170.28 
L 782.318094 170.28 
L 782.318094 185.510769 
L 769.047273 185.510769 
z
" clip-path="url(#p874a1380a9)" style="fill: #167d9a"/>
   </g>
   <g id="patch_95">
    <path d="M 769.047273 192.67819 
L 807.298464 192.67819 
L 807.298464 207.908959 
L 769.047273 207.908959 
z
" clip-path="url(#p874a1380a9)" style="fill: #167d9a"/>
   </g>
   <g id="patch_96">
    <path d="M 769.047273 215.07638 
L 783.879367 215.07638 
L 783.879367 230.307149 
L 769.047273 230.307149 
z
" clip-path="url(#p874a1380a9)" style="fill: #167d9a"/>
   </g>
   <g id="patch_97">
    <path d="M 769.047273 237.47457 
L 946.251771 237.47457 
L 946.251771 252.705339 
L 769.047273 252.705339 
z
" clip-path="url(#p874a1380a9)" style="fill: #167d9a"/>
   </g>
   <g id="patch_98">
    <path d="M 769.047273 259.87276 
L 799.492098 259.87276 
L 799.492098 275.103529 
L 769.047273 275.103529 
z
" clip-path="url(#p874a1380a9)" style="fill: #167d9a"/>
   </g>
   <g id="patch_99">
    <path d="M 769.047273 282.27095 
L 834.620743 282.27095 
L 834.620743 297.501719 
L 769.047273 297.501719 
z
" clip-path="url(#p874a1380a9)" style="fill: #167d9a"/>
   </g>
   <g id="patch_100">
    <path d="M 769.047273 304.66914 
L 833.05947 304.66914 
L 833.05947 319.89991 
L 769.047273 319.89991 
z
" clip-path="url(#p874a1380a9)" style="fill: #167d9a"/>
   </g>
   <g id="patch_101">
    <path d="M 769.047273 327.06733 
L 819.788649 327.06733 
L 819.788649 342.2981 
L 769.047273 342.2981 
z
" clip-path="url(#p874a1380a9)" style="fill: #167d9a"/>
   </g>
   <g id="patch_102">
    <path d="M 769.047273 349.46552 
L 784.660004 349.46552 
L 784.660004 364.69629 
L 769.047273 364.69629 
z
" clip-path="url(#p874a1380a9)" style="fill: #167d9a"/>
   </g>
   <g id="patch_103">
    <path d="M 769.047273 371.86371 
L 786.221277 371.86371 
L 786.221277 387.09448 
L 769.047273 387.09448 
z
" clip-path="url(#p874a1380a9)" style="fill: #167d9a"/>
   </g>
   <g id="patch_104">
    <path d="M 769.047273 394.2619 
L 975.91596 394.2619 
L 975.91596 409.49267 
L 769.047273 409.49267 
z
" clip-path="url(#p874a1380a9)" style="fill: #167d9a"/>
   </g>
   <g id="patch_105">
    <path d="M 769.047273 416.66009 
L 843.207745 416.66009 
L 843.207745 431.89086 
L 769.047273 431.89086 
z
" clip-path="url(#p874a1380a9)" style="fill: #167d9a"/>
   </g>
   <g id="patch_106">
    <path d="M 769.047273 439.058281 
L 781.537458 439.058281 
L 781.537458 454.28905 
L 769.047273 454.28905 
z
" clip-path="url(#p874a1380a9)" style="fill: #167d9a"/>
   </g>
   <g id="patch_107">
    <path d="M 769.047273 461.456471 
L 819.008012 461.456471 
L 819.008012 476.68724 
L 769.047273 476.68724 
z
" clip-path="url(#p874a1380a9)" style="fill: #167d9a"/>
   </g>
   <g id="patch_108">
    <path d="M 769.047273 483.854661 
L 785.44064 483.854661 
L 785.44064 499.08543 
L 769.047273 499.08543 
z
" clip-path="url(#p874a1380a9)" style="fill: #167d9a"/>
   </g>
   <g id="patch_109">
    <path d="M 769.047273 506.252851 
L 781.537458 506.252851 
L 781.537458 521.48362 
L 769.047273 521.48362 
z
" clip-path="url(#p874a1380a9)" style="fill: #167d9a"/>
   </g>
   <g id="patch_110">
    <path d="M 769.047273 528.651041 
L 791.685733 528.651041 
L 791.685733 543.88181 
L 769.047273 543.88181 
z
" clip-path="url(#p874a1380a9)" style="fill: #167d9a"/>
   </g>
   <g id="patch_111">
    <path d="M 769.047273 551.049231 
L 770.608546 551.049231 
L 770.608546 566.28 
L 769.047273 566.28 
z
" clip-path="url(#p874a1380a9)" style="fill: #167d9a"/>
   </g>
   <g id="text_54">
    <text style="font-size: 10px; font-family: 'DejaVu Sans'; text-anchor: start; fill: #233644" x="785.44064" y="180.65476" transform="rotate(-0 785.44064 180.65476)">17 / 19</text>
   </g>
   <g id="text_55">
    <text style="font-size: 10px; font-family: 'DejaVu Sans'; text-anchor: start; fill: #233644" x="810.42101" y="203.05295" transform="rotate(-0 810.42101 203.05295)">49 / 61</text>
   </g>
   <g id="text_56">
    <text style="font-size: 10px; font-family: 'DejaVu Sans'; text-anchor: start; fill: #233644" x="787.001913" y="225.45114" transform="rotate(-0 787.001913 225.45114)">19 / 24</text>
   </g>
   <g id="text_57">
    <text style="font-size: 10px; font-family: 'DejaVu Sans'; text-anchor: start; fill: #233644" x="949.374317" y="247.84933" transform="rotate(-0 949.374317 247.84933)">227 / 302</text>
   </g>
   <g id="text_58">
    <text style="font-size: 10px; font-family: 'DejaVu Sans'; text-anchor: start; fill: #233644" x="802.614645" y="270.24752" transform="rotate(-0 802.614645 270.24752)">39 / 52</text>
   </g>
   <g id="text_59">
    <text style="font-size: 10px; font-family: 'DejaVu Sans'; text-anchor: start; fill: #233644" x="837.743289" y="292.64571" transform="rotate(-0 837.743289 292.64571)">84 / 114</text>
   </g>
   <g id="text_60">
    <text style="font-size: 10px; font-family: 'DejaVu Sans'; text-anchor: start; fill: #233644" x="836.182016" y="315.0439" transform="rotate(-0 836.182016 315.0439)">82 / 112</text>
   </g>
   <g id="text_61">
    <text style="font-size: 10px; font-family: 'DejaVu Sans'; text-anchor: start; fill: #233644" x="822.911195" y="337.44209" transform="rotate(-0 822.911195 337.44209)">65 / 90</text>
   </g>
   <g id="text_62">
    <text style="font-size: 10px; font-family: 'DejaVu Sans'; text-anchor: start; fill: #233644" x="787.78255" y="359.84028" transform="rotate(-0 787.78255 359.84028)">20 / 28</text>
   </g>
   <g id="text_63">
    <text style="font-size: 10px; font-family: 'DejaVu Sans'; text-anchor: start; fill: #233644" x="789.343823" y="382.23847" transform="rotate(-0 789.343823 382.23847)">22 / 31</text>
   </g>
   <g id="text_64">
    <text style="font-size: 10px; font-family: 'DejaVu Sans'; text-anchor: start; fill: #233644" x="979.038506" y="404.63666" transform="rotate(-0 979.038506 404.63666)">265 / 374</text>
   </g>
   <g id="text_65">
    <text style="font-size: 10px; font-family: 'DejaVu Sans'; text-anchor: start; fill: #233644" x="846.330292" y="427.03485" transform="rotate(-0 846.330292 427.03485)">95 / 135</text>
   </g>
   <g id="text_66">
    <text style="font-size: 10px; font-family: 'DejaVu Sans'; text-anchor: start; fill: #233644" x="784.660004" y="449.43304" transform="rotate(-0 784.660004 449.43304)">16 / 23</text>
   </g>
   <g id="text_67">
    <text style="font-size: 10px; font-family: 'DejaVu Sans'; text-anchor: start; fill: #233644" x="822.130558" y="471.83123" transform="rotate(-0 822.130558 471.83123)">64 / 93</text>
   </g>
   <g id="text_68">
    <text style="font-size: 10px; font-family: 'DejaVu Sans'; text-anchor: start; fill: #233644" x="788.563187" y="494.22942" transform="rotate(-0 788.563187 494.22942)">21 / 31</text>
   </g>
   <g id="text_69">
    <text style="font-size: 10px; font-family: 'DejaVu Sans'; text-anchor: start; fill: #233644" x="784.660004" y="516.62761" transform="rotate(-0 784.660004 516.62761)">16 / 25</text>
   </g>
   <g id="text_70">
    <text style="font-size: 10px; font-family: 'DejaVu Sans'; text-anchor: start; fill: #233644" x="794.808279" y="539.0258" transform="rotate(-0 794.808279 539.0258)">29 / 48</text>
   </g>
   <g id="text_71">
    <text style="font-size: 10px; font-family: 'DejaVu Sans'; text-anchor: start; fill: #233644" x="773.731092" y="561.42399" transform="rotate(-0 773.731092 561.42399)">2 / 4</text>
   </g>
   <g id="text_72">
    <text style="font-size: 12px; font-family: 'DejaVu Sans'; text-anchor: start" x="769.047273" y="134.48" transform="rotate(-0 769.047273 134.48)">Accessible / total papers</text>
   </g>
  </g>
  <g id="text_73">
   <text style="font-weight: 700; font-size: 23px; font-family: 'DejaVu Sans'; text-anchor: start; fill: #233644" x="51.84" y="39.6" transform="rotate(-0 51.84 39.6)">Repository availability by original modality</text>
  </g>
  <g id="text_74">
   <text style="font-size: 12px; font-family: 'DejaVu Sans'; text-anchor: start; fill: #596c79" x="51.84" y="79.2" transform="rotate(-0 51.84 79.2)">Compare coverage on the left and the number of accessible repository pages on the right.</text>
  </g>
  <g id="text_75">
   <text style="font-weight: 700; font-size: 13px; font-family: 'DejaVu Sans'; text-anchor: start; fill: #167d9a" x="51.84" y="106.92" transform="rotate(-0 51.84 106.92)">Overall: 828 / 1,161 unique papers (71.3%) have accessible repository pages</text>
  </g>
  <g id="text_76">
   <text style="font-size: 10px; font-family: 'DejaVu Sans'; text-anchor: start; fill: #596c79" x="51.84" y="740.52" transform="rotate(-0 51.84 740.52)">Modality memberships overlap; do not sum these rows. Small groups (e.g., Spectroscopy, n=4) have less stable percentages.</text>
  </g>
  <g id="text_77">
   <text style="font-size: 10px; font-family: 'DejaVu Sans'; text-anchor: start; fill: #596c79" x="51.84" y="772.2" transform="rotate(-0 51.84 772.2)">Public-link checks: 2026-10-01. Other links include project pages and model/data hubs. Repository code was not analyzed.</text>
  </g>
  <g id="legend_1">
   <g id="patch_112">
    <path d="M 216.36 680.284063 
L 236.36 680.284063 
L 236.36 673.284063 
L 216.36 673.284063 
z
" style="fill: #167d9a"/>
   </g>
   <g id="text_78">
    <text style="font-size: 10px; font-family: 'DejaVu Sans'; text-anchor: start" x="244.36" y="680.284063" transform="rotate(-0 244.36 680.284063)">Accessible repository page</text>
   </g>
   <g id="patch_113">
    <path d="M 216.36 694.962188 
L 236.36 694.962188 
L 236.36 687.962188 
L 216.36 687.962188 
z
" style="fill: #c96153"/>
   </g>
   <g id="text_79">
    <text style="font-size: 10px; font-family: 'DejaVu Sans'; text-anchor: start" x="244.36" y="694.962188" transform="rotate(-0 244.36 694.962188)">HTTP 404 / 410 — not found / gone</text>
   </g>
   <g id="patch_114">
    <path d="M 216.36 709.640313 
L 236.36 709.640313 
L 236.36 702.640313 
L 216.36 702.640313 
z
" style="fill: #8767a5"/>
   </g>
   <g id="text_80">
    <text style="font-size: 10px; font-family: 'DejaVu Sans'; text-anchor: start" x="244.36" y="709.640313" transform="rotate(-0 244.36 709.640313)">Malformed or unresolved repository link</text>
   </g>
   <g id="patch_115">
    <path d="M 464.14125 680.284063 
L 484.14125 680.284063 
L 484.14125 673.284063 
L 464.14125 673.284063 
z
" style="fill: #d8a642"/>
   </g>
   <g id="text_81">
    <text style="font-size: 10px; font-family: 'DejaVu Sans'; text-anchor: start" x="492.14125" y="680.284063" transform="rotate(-0 492.14125 680.284063)">Other artifact link</text>
   </g>
   <g id="patch_116">
    <path d="M 464.14125 694.962188 
L 484.14125 694.962188 
L 484.14125 687.962188 
L 464.14125 687.962188 
z
" style="fill: #cfd7dd"/>
   </g>
   <g id="text_82">
    <text style="font-size: 10px; font-family: 'DejaVu Sans'; text-anchor: start" x="492.14125" y="694.962188" transform="rotate(-0 492.14125 694.962188)">No link found</text>
   </g>
  </g>
 </g>
 <defs>
  <clipPath id="paf2e51bf0a">
   <rect x="218.88" y="150.48" width="474.763636" height="435.6"/>
  </clipPath>
  <clipPath id="p874a1380a9">
   <rect x="769.047273" y="150.48" width="279.272727" height="435.6"/>
  </clipPath>
 </defs>
</svg>
